<?xml version="1.0" standalone="no"?>
<!DOCTYPE svg PUBLIC "-//W3C//DTD SVG 20010904//EN"
 "http://www.w3.org/TR/2001/REC-SVG-20010904/DTD/svg10.dtd">
<svg version="1.0" xmlns="http://www.w3.org/2000/svg"
 width="476.000000pt" height="418.000000pt" viewBox="0 0 476.000000 418.000000"
 preserveAspectRatio="xMidYMid meet">

<g transform="translate(0.000000,418.000000) scale(0.100000,-0.100000)"
fill="#000000" stroke="none">
<path d="M0 2090 l0 -2090 285 0 c183 0 285 4 285 10 0 6 -4 10 -10 10 -5 0
-10 5 -10 11 0 5 6 7 13 3 8 -5 8 -2 -2 9 -7 9 -20 17 -27 17 -8 0 -14 5 -14
11 0 6 9 8 22 4 18 -6 21 -5 11 5 -7 8 -10 31 -8 59 4 35 3 40 -4 21 -8 -23
-9 -24 -10 -3 -1 12 3 25 9 28 5 3 9 75 8 175 -1 93 1 173 5 176 4 4 7 -31 7
-77 0 -121 12 -251 21 -242 15 15 67 303 79 433 6 69 18 152 27 185 8 33 16
69 18 80 5 42 30 110 44 121 12 9 12 12 1 19 -8 5 -15 4 -17 -1 -3 -10 -57
-96 -81 -131 -12 -17 -13 -17 -6 2 7 22 7 24 0 79 -2 22 -1 34 3 27 6 -9 10
-7 14 8 3 12 11 21 17 21 9 0 7 -8 -4 -25 -9 -13 -16 -35 -15 -47 0 -17 6 -10
24 27 13 28 25 46 25 40 0 -5 6 -3 13 6 7 8 38 38 69 66 43 39 53 53 41 57 -9
4 -14 9 -11 12 3 2 17 0 31 -5 19 -8 27 -7 31 5 3 8 12 14 21 14 8 0 15 4 15
9 0 5 16 15 35 21 31 10 33 13 20 27 -10 10 -24 13 -40 9 -14 -4 -25 -2 -25 3
0 5 16 11 35 13 25 3 35 0 35 -10 0 -7 5 -10 10 -7 6 4 7 11 4 17 -4 7 -2 8 5
4 6 -4 9 -12 6 -17 -9 -14 2 -11 45 11 41 21 50 35 28 43 -7 2 -1 2 13 0 16
-2 41 5 60 16 19 12 29 21 24 21 -6 0 -20 -7 -32 -15 -17 -12 -27 -13 -47 -4
-20 9 -29 9 -41 -1 -15 -13 -20 -3 -7 15 10 14 64 16 55 2 -4 -6 4 -7 23 -3
16 4 40 9 54 10 22 2 25 7 23 37 -1 18 1 29 5 23 4 -6 14 -14 22 -17 12 -4 11
-6 -2 -6 -16 -1 -27 -21 -12 -21 17 0 84 64 82 77 -2 9 3 18 11 21 10 3 12 0
8 -11 -3 -9 -2 -19 4 -22 5 -4 12 1 15 9 3 9 15 16 26 16 10 0 16 4 13 10 -3
5 6 12 20 16 14 3 25 10 25 16 0 5 -4 7 -9 3 -5 -3 -12 -1 -15 3 -3 5 5 9 17
8 12 -1 21 -8 19 -15 -1 -7 2 -10 8 -6 5 3 11 21 11 38 1 24 3 26 6 9 2 -12 9
-20 14 -17 13 9 11 53 -3 58 -7 2 -9 8 -5 13 4 5 12 2 18 -6 8 -13 10 -13 20
0 9 13 10 12 5 -2 -3 -10 -9 -25 -12 -33 -3 -8 -2 -15 4 -15 5 0 12 9 15 20 3
11 13 20 24 19 16 0 16 -1 -2 -9 -22 -10 -5 -13 19 -4 9 3 12 12 8 22 -5 14
-3 15 10 4 13 -10 17 -10 22 3 3 8 10 15 16 15 6 0 8 -5 4 -11 -3 -6 9 -3 27
7 19 10 37 17 41 16 4 -1 12 7 18 18 21 40 27 9 6 -32 -17 -35 -22 -65 -25
-163 -4 -132 13 -392 31 -470 13 -59 76 -195 90 -195 6 0 8 -6 5 -14 -10 -27
120 -146 159 -146 14 0 39 -13 57 -30 25 -23 28 -30 15 -30 -17 0 -23 -16 -19
-48 3 -17 -16 -15 -23 3 -3 8 -11 15 -17 15 -6 0 -22 12 -35 26 -14 14 -29 22
-36 18 -6 -4 -8 -3 -4 4 3 6 -2 15 -11 21 -14 8 -15 10 -3 11 13 0 13 2 1 9
-8 5 -28 8 -45 6 -17 -2 -33 -1 -36 3 -3 4 -18 18 -34 32 l-28 25 21 -36 c36
-62 105 -123 184 -162 69 -35 80 -37 114 -28 20 6 39 8 42 6 2 -3 10 0 18 6
10 9 13 8 13 -5 0 -9 -7 -16 -15 -16 -8 0 -15 -4 -15 -9 0 -5 9 -7 20 -4 11 3
20 0 20 -6 0 -6 -11 -11 -24 -11 -37 0 -40 -27 -5 -45 16 -9 27 -20 24 -25 -4
-6 -14 -6 -26 1 -11 5 -25 9 -31 7 -6 -2 4 -12 23 -21 l34 -17 -37 0 c-34 0
-38 3 -38 25 0 28 -3 29 -30 15 -15 -8 -20 -4 -30 20 -10 25 -15 27 -31 17
-28 -17 -35 -65 -12 -82 23 -18 50 -19 56 -2 3 9 9 7 24 -5 20 -18 73 -24 87
-11 4 5 19 8 32 8 19 1 23 -3 18 -17 -4 -13 0 -18 15 -18 15 0 21 -6 21 -22 0
-16 3 -19 8 -10 7 9 13 8 27 -8 18 -19 18 -20 -3 -20 -15 0 -22 -6 -22 -20 0
-15 -7 -20 -27 -20 l-28 0 35 -22 35 -23 -28 -3 c-15 -2 -27 -7 -27 -11 0 -4
-16 -5 -36 -3 -46 6 -69 -20 -26 -29 15 -3 32 -1 39 4 23 17 35 2 16 -21 -15
-18 -23 -20 -55 -13 -34 8 -36 7 -42 -20 -3 -16 -12 -29 -20 -29 -23 0 -29 20
-12 39 27 29 19 40 -23 34 -32 -4 -41 -2 -50 16 -7 12 -20 20 -33 18 -11 -1
-23 4 -26 12 -3 10 3 12 27 6 23 -5 32 -3 37 9 5 13 9 12 24 -6 15 -20 21 -21
44 -10 36 16 34 42 -3 42 -17 0 -32 4 -35 9 -3 5 -15 7 -25 4 -33 -8 -31 13 4
44 l33 30 19 -24 c13 -18 30 -25 59 -27 23 -2 47 -7 53 -10 6 -4 11 0 11 8 0
9 7 16 15 16 29 0 14 21 -27 39 -26 11 -47 15 -52 10 -15 -14 -30 -11 -55 12
-16 15 -25 18 -30 10 -4 -6 -24 -9 -49 -7 -23 2 -42 0 -42 -5 0 -5 5 -9 11 -9
5 0 7 -4 4 -10 -9 -15 -51 -12 -64 3 -6 8 -8 17 -4 20 3 4 0 7 -8 7 -8 0 -20
-5 -25 -10 -17 -17 -114 -21 -114 -5 0 7 6 18 14 24 11 10 16 9 24 -5 7 -12
17 -15 40 -9 28 6 30 9 19 25 -9 16 -8 22 8 34 11 9 31 15 45 15 24 0 24 0 6
-14 -19 -15 -19 -15 3 -15 31 0 51 28 44 62 -4 20 -1 27 13 31 15 3 10 8 -20
21 -42 19 -66 15 -66 -10 0 -11 -5 -14 -16 -10 -9 3 -22 6 -30 6 -8 0 -14 5
-14 11 0 6 8 9 18 7 18 -5 42 13 42 31 0 15 -39 33 -53 24 -6 -4 -21 -7 -32
-6 -11 1 -3 -3 17 -10 50 -16 58 -27 20 -27 -18 0 -32 -4 -32 -9 0 -5 -9 -13
-21 -16 -19 -6 -19 -8 -4 -31 15 -23 15 -24 -10 -24 -14 0 -37 7 -51 16 -21
14 -29 15 -49 4 -14 -8 -40 -11 -64 -7 -23 3 -41 2 -41 -3 0 -12 68 -22 101
-15 18 4 36 2 44 -5 19 -16 10 -30 -20 -30 -15 0 -26 -7 -30 -20 -10 -31 -37
-26 -29 5 7 26 -4 33 -24 13 -8 -8 -15 -8 -27 2 -13 11 -16 8 -21 -17 -5 -26
-9 -29 -37 -25 -18 3 -38 9 -45 15 -9 7 -16 7 -24 -1 -15 -15 -1 -32 26 -32
12 0 30 -6 40 -13 14 -10 15 -18 7 -39 -9 -23 -18 -27 -65 -33 -37 -5 -56 -12
-56 -21 0 -14 44 -30 68 -26 6 2 12 -4 12 -12 0 -8 5 -16 11 -18 7 -2 9 -13 5
-25 -5 -15 -13 -19 -30 -16 -31 6 -43 -32 -15 -50 10 -6 19 -17 19 -24 0 -10
55 -13 246 -13 161 0 243 3 239 10 -3 6 5 10 19 10 14 0 28 -4 31 -10 4 -6 59
-10 133 -10 81 0 122 4 112 9 -8 6 -18 7 -22 5 -4 -3 -8 6 -8 19 0 14 7 28 16
31 9 4 14 13 10 21 -7 20 27 20 43 1 7 -8 21 -12 33 -8 15 3 19 1 16 -9 -3 -8
-13 -14 -23 -14 -10 0 -20 -5 -22 -12 -5 -15 18 -28 26 -15 8 13 131 -6 131
-20 0 -4 152 -8 337 -8 l337 0 -70 66 c-38 36 -68 70 -66 76 2 6 -8 23 -21 37
-17 19 -23 37 -22 66 1 27 -5 45 -16 55 -10 8 -19 24 -21 35 -2 11 -13 28 -26
39 -13 10 -21 21 -18 24 10 9 113 10 127 1 12 -8 12 -10 0 -18 -11 -7 -10 -12
6 -26 11 -10 19 -25 16 -34 -4 -16 32 -59 46 -54 3 2 6 -4 6 -12 0 -8 10 -22
23 -30 12 -9 22 -25 22 -37 0 -15 5 -19 20 -15 11 3 20 1 20 -4 0 -5 11 -9 25
-9 18 0 26 -7 31 -25 3 -14 16 -31 28 -37 57 -33 91 -55 116 -76 27 -21 36
-22 210 -22 170 0 182 1 175 18 -4 9 -11 33 -15 52 -22 99 -51 206 -83 300
-48 143 -73 230 -88 300 -5 25 -11 56 -14 70 -12 53 -15 100 -6 100 11 0 33
-61 38 -104 1 -16 7 -34 13 -41 5 -6 17 -42 25 -80 9 -38 37 -130 61 -205 50
-152 76 -244 95 -343 l13 -67 154 0 c137 0 153 2 148 16 -12 30 -28 156 -21
162 15 15 45 -42 52 -101 4 -34 6 -65 5 -69 -1 -5 149 -8 333 -8 l335 0 0 259
c0 163 -4 262 -10 266 -5 3 -10 12 -10 18 0 7 4 6 10 -3 6 -10 10 641 10 1813
l0 1827 -977 0 -977 0 -31 -30 c-32 -31 -75 -43 -82 -22 -3 6 2 12 11 12 9 0
16 8 16 20 0 15 -7 20 -29 20 -17 0 -33 -4 -36 -10 -3 -5 -15 -15 -27 -21 -15
-8 -19 -8 -14 0 4 6 2 11 -4 11 -6 0 -9 4 -6 9 9 14 -61 6 -80 -10 -16 -12
-17 -12 -12 1 4 11 -1 15 -17 15 -13 0 -21 -4 -17 -9 3 -5 -2 -6 -11 -3 -48
20 -52 20 -40 7 7 -7 27 -13 45 -13 18 0 27 -2 20 -5 -6 -2 -10 -8 -6 -13 3
-5 -6 -4 -20 2 -18 9 -29 9 -39 1 -8 -7 -18 -7 -27 -2 -9 6 -20 4 -30 -3 -13
-10 -13 -10 -2 5 7 9 22 15 32 13 13 -3 17 1 13 12 -5 12 -7 12 -14 1 -7 -10
-9 -10 -9 0 0 6 -5 12 -11 12 -5 0 -8 -3 -5 -8 2 -4 -8 -15 -24 -24 -28 -16
-28 -16 -24 6 6 33 -24 29 -42 -5 -8 -17 -21 -27 -33 -26 -11 0 -18 4 -15 8 2
4 -4 9 -13 11 -15 3 -14 5 4 10 13 3 21 2 20 -4 -1 -6 4 -13 11 -15 8 -3 10 1
5 13 -4 11 -3 15 4 11 6 -4 14 0 17 8 4 12 0 15 -17 13 -12 -2 -28 -7 -36 -12
-9 -6 -12 -5 -7 2 5 8 -292 11 -1109 12 l-1115 0 0 -2090z m2591 2070 c5 0 9
-8 9 -17 0 -14 -2 -15 -9 -5 -4 7 -14 12 -21 10 -7 -2 -15 3 -18 11 -3 10 0
12 12 8 10 -4 22 -7 27 -7z m-11 -38 l25 -12 -25 6 c-31 8 -50 23 -50 38 0 6
6 4 13 -4 7 -9 23 -21 37 -28z m-387 11 c-10 -30 -36 -54 -51 -48 -8 3 -20 1
-27 -5 -9 -8 -14 -7 -18 3 -3 9 4 13 22 12 37 -2 61 12 61 35 0 11 4 20 10 20
5 0 7 -8 3 -17z m447 3 c0 -2 -8 -10 -17 -17 -16 -13 -17 -12 -4 4 13 16 21
21 21 13z m-420 -10 c0 -3 -4 -8 -10 -11 -5 -3 -10 -1 -10 4 0 6 5 11 10 11 6
0 10 -2 10 -4z m-140 -42 c8 -8 9 -14 4 -13 -5 1 -18 1 -29 0 -15 -1 -17 -3
-7 -10 11 -6 9 -9 -6 -13 -15 -4 -18 -1 -15 13 3 10 15 20 27 23 11 2 4 4 -16
2 -20 -1 -34 2 -32 6 9 14 61 9 74 -8z m634 5 c-2 -4 0 -10 6 -14 5 -3 10 -11
10 -17 0 -6 -8 -4 -18 5 -10 10 -25 17 -33 17 -11 0 -11 2 -1 8 16 11 43 11
36 1z m57 -19 c6 0 8 4 5 8 -3 5 1 9 9 9 8 0 11 -8 8 -21 -2 -12 -5 -26 -5
-33 -1 -7 -5 -10 -10 -7 -5 3 -6 9 -3 14 3 5 1 11 -5 15 -5 3 -10 0 -10 -7 0
-10 -2 -10 -9 1 -5 8 -6 21 -3 30 4 10 7 11 10 3 2 -7 8 -12 13 -12z m-758
-15 c-3 -9 -8 -14 -10 -11 -3 3 -2 9 2 15 9 16 15 13 8 -4z m-73 -15 c0 -5 -4
-10 -10 -10 -5 0 -10 5 -10 10 0 6 5 10 10 10 6 0 10 -4 10 -10z m-40 -32 c0
-5 -4 -8 -10 -8 -5 0 -10 -4 -10 -9 0 -5 9 -7 21 -4 13 4 18 11 14 21 -5 13
-2 13 14 -2 11 -10 22 -13 25 -8 3 6 0 13 -6 15 -9 4 -10 6 -1 6 18 1 25 -16
11 -26 -15 -9 -20 -10 -48 -12 -11 0 -20 -6 -20 -12 0 -6 7 -8 17 -5 13 5 11
0 -6 -18 -26 -28 -47 -25 -31 4 13 24 13 30 0 30 -5 0 -10 -7 -10 -17 0 -9 -3
-13 -7 -9 -8 7 -12 48 -7 57 5 9 54 6 54 -3z m958 4 c14 12 14 11 1 -9 -9 -16
-16 -19 -21 -10 -4 7 -7 17 -7 22 0 6 3 4 6 -3 4 -10 8 -10 21 0z m35 -7 c-3
-9 -8 -14 -10 -11 -3 3 -2 9 2 15 9 16 15 13 8 -4z m96 -40 c27 -32 41 -60 41
-78 0 -44 17 -67 49 -67 28 0 81 -44 68 -57 -4 -3 -7 -2 -7 4 0 6 -8 9 -18 6
-10 -2 -24 3 -31 11 -8 9 -20 16 -27 16 -8 0 -14 4 -14 9 0 6 -13 17 -28 27
-19 11 -28 23 -26 38 4 33 6 33 14 1 l8 -30 -1 35 c-2 28 -6 34 -21 32 -13 -2
-17 1 -13 10 5 15 -28 43 -36 30 -2 -4 -3 -2 -1 4 4 17 -16 33 -35 27 -10 -3
-7 3 8 16 13 12 25 20 26 19 2 -2 21 -25 44 -53z m-71 -3 c9 9 12 9 12 0 0 -7
-6 -12 -12 -12 -8 0 -5 -7 6 -15 15 -12 23 -12 35 -3 13 10 14 10 5 -1 -9 -10
-7 -18 8 -33 27 -27 15 -35 -14 -8 -68 63 -78 74 -78 84 0 6 6 3 14 -6 10 -13
15 -15 24 -6z m-1098 -32 c0 -5 -5 -10 -11 -10 -5 0 -7 5 -4 10 3 6 8 10 11
10 2 0 4 -4 4 -10z m23 -7 c-5 -12 -3 -14 7 -8 16 10 9 -2 -41 -71 -21 -29
-35 -55 -31 -59 4 -5 1 -5 -6 -1 -7 4 -10 12 -7 17 4 5 -8 6 -27 3 -45 -9 -78
-41 -78 -77 0 -18 -4 -27 -12 -24 -21 6 -9 60 21 90 21 21 38 28 74 30 47 2
60 10 32 21 -17 6 -20 26 -4 26 5 0 8 -4 4 -9 -3 -6 4 -9 15 -8 10 1 22 8 25
16 8 20 -4 28 -15 11 -6 -8 -10 -10 -10 -4 0 21 23 34 39 21 12 -10 13 -9 7 1
-8 13 -2 42 8 42 3 0 2 -7 -1 -17z m-53 -13 c0 -5 -4 -10 -9 -10 -6 0 -13 5
-16 10 -3 6 1 10 9 10 9 0 16 -4 16 -10z m128 -107 c-2 -13 3 -17 17 -16 11 1
15 0 8 -3 -13 -6 -6 -32 14 -52 18 -18 16 -31 -4 -39 -18 -7 -33 -22 -33 -35
0 -14 27 -8 40 7 11 13 15 13 21 3 13 -20 11 -28 -10 -28 -25 0 -37 -31 -17
-46 20 -14 20 -24 0 -24 -10 0 -14 -6 -11 -14 4 -9 -4 -16 -24 -20 -16 -3 -41
-17 -55 -31 -14 -14 -29 -25 -34 -25 -6 0 -10 -6 -10 -14 0 -8 -13 -25 -29
-39 -17 -14 -27 -28 -24 -31 4 -3 1 -6 -6 -6 -7 0 -10 -4 -6 -10 3 -5 -3 -18
-15 -30 l-20 -20 45 4 c24 3 53 9 62 14 21 11 73 5 88 -9 5 -5 19 -9 32 -9 13
0 23 -4 23 -8 0 -5 15 -9 33 -9 17 0 65 -2 105 -4 53 -2 75 0 81 10 7 10 13
11 30 2 12 -7 21 -8 20 -4 -3 20 2 27 11 13 8 -11 9 -8 4 11 -3 17 -1 30 7 34
8 5 10 4 5 -3 -11 -19 5 -14 20 6 9 11 13 13 14 4 0 -7 4 -11 9 -8 5 3 12 -1
15 -10 11 -28 29 -10 46 47 32 102 69 55 62 -79 -1 -18 -6 -31 -11 -28 -4 3
-7 -7 -5 -22 1 -15 -3 -34 -11 -42 -21 -23 -38 -70 -45 -130 -4 -30 -11 -66
-14 -80 -4 -14 -6 -50 -5 -80 0 -30 2 -88 3 -129 1 -73 2 -75 33 -90 18 -9 33
-23 33 -32 0 -9 9 -24 20 -34 11 -10 18 -20 15 -23 -3 -3 -1 -10 5 -17 6 -7 0
-21 -19 -40 -24 -26 -27 -36 -23 -72 5 -48 1 -52 -27 -22 -16 18 -22 19 -40 7
-12 -7 -21 -16 -21 -21 0 -4 -4 -5 -10 -2 -5 3 -10 0 -10 -7 0 -8 -3 -9 -8 -3
-13 19 -63 39 -70 30 -10 -14 -30 -17 -64 -10 -15 4 -26 11 -22 16 3 5 -7 9
-22 9 -26 0 -27 0 -9 20 18 20 65 28 65 11 0 -5 13 -11 29 -13 40 -6 29 8 -27
35 -26 12 -51 32 -57 45 -5 12 -15 20 -22 18 -8 -3 -10 1 -6 11 4 11 3 14 -5
9 -8 -4 -15 1 -20 15 -6 16 -3 28 15 47 21 23 22 27 8 42 -9 10 -15 24 -13 31
2 8 -3 13 -9 12 -7 -2 -13 3 -13 11 0 8 -3 21 -6 29 -3 9 0 17 8 20 7 2 5 3
-4 2 -23 -4 -34 13 -14 21 9 3 16 12 16 19 0 8 9 17 20 20 11 3 20 10 20 15 0
11 75 51 82 45 10 -10 47 42 53 72 4 26 2 31 -10 27 -10 -4 -15 0 -15 11 0 9
4 14 9 11 5 -3 11 3 14 13 3 11 -1 22 -8 24 -6 3 -22 26 -34 51 -11 25 -26 46
-33 46 -6 0 -8 3 -5 7 4 4 -14 17 -40 31 -42 21 -56 23 -117 17 -80 -8 -111
-18 -119 -38 -4 -11 0 -14 16 -11 22 4 22 4 -1 -7 l-22 -12 30 -19 c17 -10 37
-18 46 -18 33 0 2 -17 -53 -30 -31 -7 -67 -19 -78 -26 -12 -8 -25 -11 -29 -7
-4 5 -6 -1 -4 -12 3 -21 96 -56 185 -70 l48 -7 -35 -15 c-36 -15 -81 -13 -175
7 -62 13 -94 7 -92 -19 1 -14 10 -20 34 -23 25 -3 30 -1 21 9 -13 16 4 17 20
1 9 -9 12 -9 12 0 0 7 5 12 11 12 6 0 9 -7 5 -15 -3 -9 0 -15 9 -15 8 0 15 -6
15 -12 0 -9 3 -8 10 2 11 18 14 15 33 -42 9 -28 12 -50 6 -53 -17 -11 -9 -25
14 -25 20 0 23 -5 23 -38 0 -42 23 -102 39 -102 6 0 18 -9 28 -20 9 -11 12
-20 7 -20 -6 0 -5 -6 2 -14 11 -11 15 -11 25 3 11 14 12 13 13 -6 0 -21 -10
-28 -34 -24 -5 1 -4 -5 3 -13 9 -10 9 -20 3 -32 -5 -9 -7 -25 -5 -35 6 -23 43
-26 43 -4 0 21 20 19 21 -2 1 -10 4 -4 8 12 4 17 2 33 -4 37 -9 7 -5 9 11 7 4
0 11 5 16 13 8 10 9 9 5 -4 -3 -9 1 -19 9 -22 9 -3 13 -10 9 -15 -3 -6 -12 -8
-20 -4 -11 4 -15 -2 -15 -22 0 -22 -3 -25 -20 -20 -16 5 -20 2 -20 -16 0 -17
3 -19 14 -10 11 9 18 8 30 -5 10 -9 14 -19 11 -23 -4 -3 -13 3 -21 13 -10 15
-14 16 -16 5 -3 -30 -4 -34 -11 -46 -5 -7 -5 -18 -1 -24 4 -8 9 -7 15 2 13 21
12 -7 -2 -33 -9 -16 -8 -19 3 -12 26 16 86 21 143 10 17 -3 47 -7 69 -10 40
-4 78 -36 84 -68 4 -24 -30 -28 -200 -26 -81 1 -151 -1 -155 -5 -3 -4 -1 -7 5
-7 7 0 24 -14 39 -30 14 -17 32 -30 38 -30 7 0 18 -7 25 -15 16 -19 31 -19 24
0 -4 8 -1 15 5 15 6 0 11 -5 11 -10 0 -6 3 -9 8 -8 14 4 58 -15 90 -39 46 -34
83 -43 190 -44 50 -1 92 -4 92 -7 0 -11 -33 -42 -45 -42 -7 0 -15 -6 -18 -14
-7 -18 -55 -9 -67 14 -5 10 -6 20 -3 24 3 3 -6 6 -20 6 -17 0 -40 -12 -59 -30
-17 -16 -37 -30 -45 -30 -11 0 -11 -4 -3 -20 6 -11 9 -24 6 -29 -3 -5 3 -16
14 -26 10 -9 16 -23 13 -31 -4 -10 0 -12 10 -8 12 4 17 -3 23 -31 7 -42 1 -53
-21 -35 -8 7 -22 10 -30 6 -13 -4 -14 -10 -5 -26 15 -28 -6 -27 -30 2 l-18 23
5 -27 c3 -15 10 -26 15 -25 6 1 13 -4 15 -11 3 -8 -1 -10 -11 -6 -11 4 -16 0
-16 -14 0 -12 -4 -23 -9 -26 -4 -3 -6 7 -3 22 4 26 4 27 -12 7 -17 -20 -17
-20 -11 2 5 18 2 21 -14 18 -15 -3 -21 1 -21 15 0 28 -21 36 -37 15 -7 -11
-13 -13 -13 -6 0 7 -5 9 -10 6 -11 -7 -7 36 5 56 4 6 -2 5 -13 -2 -12 -7 -19
-17 -16 -21 3 -4 -2 -5 -10 -2 -11 4 -16 0 -16 -11 0 -9 4 -14 9 -11 5 3 11
-5 13 -18 4 -17 1 -23 -10 -22 -9 2 -16 10 -18 18 -1 9 -5 25 -9 37 -5 18 -9
20 -21 10 -8 -6 -17 -9 -20 -6 -3 3 6 13 20 22 14 10 26 22 26 29 0 8 -2 8 -8
0 -10 -15 -41 -14 -35 2 2 6 -1 15 -8 20 -8 4 -10 3 -5 -4 5 -8 1 -10 -10 -5
-14 5 -16 3 -11 -11 4 -10 3 -15 -3 -11 -18 11 -11 32 16 43 14 7 22 17 19 22
-9 14 -25 12 -25 -3 0 -8 -7 -14 -15 -14 -18 0 -20 23 -2 30 9 3 9 8 -2 18 -8
8 -11 9 -8 3 3 -6 0 -11 -7 -11 -8 0 -11 8 -8 19 3 12 -1 18 -12 18 -9 0 -16
-4 -16 -10 0 -5 -4 -10 -10 -10 -5 0 -6 7 -3 17 4 11 3 14 -5 9 -7 -4 -12 -1
-13 6 -1 7 -5 2 -9 -12 -8 -24 -8 -24 -9 -2 -1 12 -5 30 -9 40 -5 9 -15 31
-23 47 -16 33 -39 39 -52 15 -4 -9 -5 -3 -2 13 7 36 -4 84 -16 65 -12 -18 -11
-31 1 -23 5 3 10 1 10 -4 0 -6 -6 -11 -14 -11 -16 0 -29 27 -15 32 5 2 9 21 9
43 0 80 -5 123 -14 118 -4 -3 -6 -33 -3 -67 3 -33 3 -53 0 -43 -5 19 -18 22
-28 7 -7 -12 -25 -4 -25 11 0 6 5 7 10 4 19 -12 28 5 17 30 -7 14 -15 25 -19
25 -5 0 -8 7 -8 16 0 9 -5 12 -12 8 -8 -5 -9 3 -5 30 3 20 3 35 -1 32 -4 -2
-7 25 -8 60 0 36 2 60 6 54 5 -7 9 -4 13 9 2 11 -1 28 -9 39 -7 11 -10 22 -7
26 3 3 2 6 -4 6 -5 0 -10 6 -11 13 0 6 -3 21 -6 32 -2 11 -5 34 -6 50 -2 22
-4 24 -7 10 -5 -16 -8 -14 -23 15 -16 31 -17 39 -4 69 8 18 14 43 13 55 0 21
0 21 -11 -1 -6 -13 -20 -23 -32 -23 -67 -1 -81 -97 -18 -125 12 -5 22 -16 22
-23 0 -7 11 -18 25 -24 23 -10 25 -17 27 -82 2 -83 4 -118 8 -128 1 -5 3 -17
4 -27 0 -11 4 -23 9 -27 14 -14 7 -26 -8 -14 -8 7 -15 9 -15 4 0 -13 20 -41
20 -29 0 14 20 -17 20 -32 0 -7 -8 -13 -17 -13 -14 0 -13 -3 6 -16 16 -11 19
-20 12 -27 -7 -7 -15 -7 -24 2 -12 9 -16 7 -20 -11 -4 -12 -2 -27 4 -34 6 -8
5 -13 -4 -17 -11 -4 -13 3 -11 28 1 19 5 38 8 44 4 5 2 12 -3 15 -5 3 -8 26
-6 51 1 25 -2 45 -7 45 -5 0 -6 16 -2 36 5 27 4 35 -5 30 -20 -13 -61 -14 -68
-3 -3 6 -1 7 5 3 6 -3 13 -2 16 3 3 5 0 11 -8 14 -15 6 -11 47 5 47 11 0 7
-22 -6 -33 -5 -5 0 -5 13 -2 13 4 22 2 22 -5 0 -6 -4 -8 -10 -5 -6 3 -7 -1 -3
-10 3 -9 9 -13 12 -8 3 5 13 8 21 8 22 -2 31 5 24 16 -3 6 -12 5 -22 -3 -13
-11 -15 -10 -9 4 4 12 -5 25 -29 45 -60 47 -114 102 -114 116 1 12 59 -51 60
-64 0 -4 8 -10 17 -13 16 -6 16 -6 0 12 -9 10 -14 22 -11 25 4 4 -1 9 -10 13
-9 3 -16 14 -16 23 0 14 2 14 10 1 8 -13 10 -13 10 2 0 9 -3 19 -8 21 -14 10
-5 176 13 213 16 33 16 36 0 48 -17 12 -17 49 -2 195 4 39 26 36 43 -6 16 -39
51 -83 66 -83 4 0 8 13 8 28 0 16 3 32 7 36 15 15 13 53 -2 53 -10 0 -14 -7
-10 -21 3 -12 2 -15 -1 -8 -3 6 -10 12 -15 12 -6 0 -7 -5 -3 -12 4 -7 3 -8 -5
-4 -6 4 -8 13 -4 19 4 7 8 17 8 22 0 6 7 10 15 10 8 0 18 11 22 25 7 24 8 24
4 -2 -2 -16 0 -28 4 -28 8 0 23 72 41 198 6 45 16 82 21 82 5 0 7 4 3 9 -3 5
-1 12 5 16 5 3 10 13 10 21 0 8 7 31 16 52 10 20 19 45 20 55 2 10 11 29 20
42 8 13 15 25 15 27 -2 13 13 48 21 48 5 0 7 4 4 8 -3 5 8 24 24 43 16 19 29
39 30 44 0 8 20 22 48 34 2 0 2 -7 0 -16z m1132 -26 c0 -4 4 -6 9 -2 14 8 58
-15 58 -30 0 -8 -6 -16 -13 -19 -7 -3 -10 2 -7 15 3 11 0 19 -6 19 -7 0 -9 -4
-6 -10 3 -5 -1 -10 -11 -10 -14 0 -15 2 -3 17 12 15 12 16 -3 10 -13 -5 -22 2
-33 26 -14 29 -14 30 0 13 8 -11 15 -24 15 -29z m-1323 -10 c6 -4 14 -1 16 5
4 9 6 10 6 1 1 -15 -39 -44 -51 -37 -13 8 -10 -10 5 -25 10 -11 9 -12 -2 -6
-11 6 -13 4 -8 -8 3 -9 1 -19 -6 -23 -7 -4 -9 -4 -5 1 4 4 3 14 -3 22 -7 8 -7
13 -2 13 6 0 9 12 7 27 -4 41 10 51 43 30z m373 -15 c0 -5 -7 -9 -15 -9 -8 0
-12 4 -9 9 3 4 9 8 15 8 5 0 9 -4 9 -8z m-77 -21 c21 11 21 10 5 -6 -17 -18
-39 -13 -37 8 0 9 2 9 6 0 3 -10 10 -10 26 -2z m1128 -55 c5 3 9 -2 9 -10 0
-18 -16 -21 -25 -6 -10 17 -25 11 -18 -7 5 -15 3 -14 -10 2 -23 29 -21 36 9
25 14 -6 30 -8 35 -4z m-1166 -56 c-3 -5 -11 -10 -16 -10 -6 0 -7 5 -4 10 3 6
11 10 16 10 6 0 7 -4 4 -10z m-321 -15 c-7 -16 -24 -21 -24 -6 0 8 7 13 27 20
1 1 0 -6 -3 -14z m1471 5 c-8 -13 1 -13 26 0 10 6 19 8 19 6 0 -10 -41 -27
-50 -21 -10 6 -5 25 6 25 3 0 2 -4 -1 -10z m62 -37 c-1 -27 -3 -40 -5 -30 -2
9 -8 17 -13 17 -6 0 -8 4 -5 9 4 5 0 12 -6 14 -8 3 -6 6 5 6 9 1 17 8 17 16 0
8 2 15 4 15 2 0 3 -21 3 -47z m-1579 -20 c-11 -15 -11 -16 4 -10 12 4 21 0 29
-14 10 -20 10 -20 -21 -4 -24 12 -29 20 -21 28 6 6 12 22 12 37 2 24 2 24 6 2
3 -13 -1 -30 -9 -39z m496 41 c7 -17 -11 -47 -23 -39 -6 3 -7 37 -2 53 3 8 20
-1 25 -14z m1062 -62 c-4 -22 -23 -35 -31 -21 -5 7 -4 10 3 5 7 -4 10 1 9 14
-1 11 -5 20 -10 20 -4 0 -5 4 -2 10 8 13 33 -10 31 -28z m-1540 -39 c1 -15 -4
-19 -17 -16 -11 3 -19 9 -19 14 0 5 8 5 18 2 15 -6 16 -5 2 12 -13 16 -13 18
0 13 8 -2 15 -14 16 -25z m529 16 c-4 -6 2 -13 14 -16 25 -6 27 -16 4 -34 -12
-11 -17 -11 -20 -2 -3 9 -12 9 -29 3 -19 -8 -23 -7 -17 3 8 13 10 18 12 42 0
8 10 15 22 15 12 0 17 -4 14 -11z m1030 -21 c-4 -49 -4 -50 -15 -43 -14 9 -12
43 3 60 6 8 13 14 13 15 1 0 0 -15 -1 -32z m-642 -61 c3 -21 -2 -43 -15 -65
-20 -32 -21 -33 -34 -13 -20 27 -27 106 -14 132 l12 21 23 -22 c13 -12 25 -36
28 -53z m-938 22 c-5 -15 -4 -19 4 -15 6 4 11 2 11 -3 0 -6 5 -11 10 -11 7 0
7 7 -1 21 -6 13 -7 19 -1 15 6 -3 12 0 15 6 3 7 4 0 2 -17 -1 -16 -7 -31 -14
-33 -6 -2 -11 -8 -11 -13 0 -6 5 -7 10 -4 6 3 10 2 10 -4 0 -16 -18 -22 -24
-9 -7 14 0 -29 10 -59 3 -10 -4 -2 -14 17 -17 30 -18 37 -6 54 11 16 11 21 -2
30 -9 7 -12 18 -8 29 9 24 17 21 9 -4z m602 0 c9 -9 8 -15 -3 -27 -18 -18 -31
-8 -15 12 9 11 9 15 -1 19 -7 3 -8 6 -2 6 5 1 15 -4 21 -10z m41 -26 c-4 -50
-23 -52 -24 -3 -1 28 3 40 13 40 10 0 13 -10 11 -37z m-88 2 c-7 -9 -15 -13
-17 -11 -7 7 7 26 19 26 6 0 6 -6 -2 -15z m1007 -34 c-1 -17 -27 -26 -27 -9 0
4 4 8 10 8 5 0 6 7 3 17 -4 10 -2 14 5 9 6 -3 10 -15 9 -25z m-1370 -37 c-3
-3 -12 -4 -19 -1 -8 3 -5 6 6 6 11 1 17 -2 13 -5z m418 -14 c3 -5 1 -10 -4
-10 -6 0 -11 5 -11 10 0 6 2 10 4 10 3 0 8 -4 11 -10z m-612 -20 c3 -11 1 -18
-4 -14 -5 3 -9 12 -9 20 0 20 7 17 13 -6z m1577 11 c0 -6 -4 -13 -10 -16 -5
-3 -10 1 -10 9 0 9 5 16 10 16 6 0 10 -4 10 -9z m-17 -51 c-3 -11 -7 -20 -9
-20 -2 0 -4 9 -4 20 0 11 4 20 9 20 5 0 7 -9 4 -20z m-1552 -44 c8 -24 7 -27
-6 -16 -8 7 -15 27 -14 44 0 17 3 24 6 16 2 -8 9 -28 14 -44z m16 12 c-3 -7
-5 -2 -5 12 0 14 2 19 5 13 2 -7 2 -19 0 -25z m1559 -24 c2 -26 2 -45 -2 -42
-3 3 -7 27 -10 54 -2 26 -2 45 2 42 3 -3 7 -27 10 -54z m-1736 -9 c0 -8 -7
-15 -15 -15 -16 0 -20 12 -8 23 11 12 23 8 23 -8z m187 -7 c-3 -8 -6 -5 -6 6
-1 11 2 17 5 13 3 -3 4 -12 1 -19z m1512 0 c-5 -10 -11 -18 -12 -18 -2 0 -3 8
-3 18 0 10 6 19 13 19 8 0 9 -6 2 -19z m-1252 6 c-3 -3 -12 -4 -19 -1 -8 3 -5
6 6 6 11 1 17 -2 13 -5z m-309 -26 c-6 -16 -78 -24 -78 -8 0 6 5 8 10 5 6 -3
10 -2 10 2 0 5 14 10 31 11 21 2 30 -2 27 -10z m19 -20 c-3 -7 -5 -2 -5 12 0
14 2 19 5 13 2 -7 2 -19 0 -25z m1565 -17 c-3 -8 -1 -12 5 -8 5 3 10 0 10 -7
0 -8 -6 -12 -14 -9 -7 3 -13 14 -13 25 0 10 -4 16 -10 13 -14 -9 -12 9 2 23
10 10 14 9 19 -5 3 -10 4 -24 1 -32z m-12 -43 c0 -20 -18 -5 -23 19 -5 26 -4
26 9 8 8 -10 14 -22 14 -27z m-1682 9 c-7 -15 -7 -22 3 -29 11 -7 9 -8 -4 -4
-14 4 -17 2 -13 -12 8 -24 -9 -50 -17 -27 -4 9 -3 13 3 10 6 -3 10 -1 10 4 0
6 -8 11 -17 11 -17 1 -17 1 0 11 20 11 23 30 5 25 -7 -1 -10 -1 -6 1 4 2 5 10
2 17 -3 7 5 12 20 12 21 0 23 -3 14 -19z m73 6 c13 -16 12 -17 -3 -4 -17 13
-22 21 -14 21 2 0 10 -8 17 -17z m385 -11 c12 2 19 -4 21 -17 1 -11 0 -15 -3
-9 -2 6 -15 9 -28 7 -13 -3 -34 1 -47 8 -23 12 -23 12 -4 19 11 4 25 3 32 -2
6 -5 20 -8 29 -6z m239 -3 c11 -17 -1 -21 -15 -4 -8 9 -8 15 -2 15 6 0 14 -5
17 -11z m1002 -21 c-3 -8 -6 -5 -6 6 -1 11 2 17 5 13 3 -3 4 -12 1 -19z m-19
-14 c1 -1 -5 -4 -15 -6 -13 -4 -19 0 -19 13 0 14 3 16 16 6 8 -6 16 -12 18
-13z m9 -20 c-3 -3 -12 -4 -19 -1 -8 3 -5 6 6 6 11 1 17 -2 13 -5z m168 -4 c3
-5 1 -10 -4 -10 -6 0 -11 5 -11 10 0 6 2 10 4 10 3 0 8 -4 11 -10z m-148 -7
c-4 -3 -2 -11 3 -18 6 -8 6 -12 -3 -13 -22 -2 -42 -7 -54 -15 -7 -5 -13 -4
-13 2 0 6 15 15 33 20 29 8 30 9 7 11 l-25 2 25 8 c34 11 34 11 27 3z m-1722
-51 c-4 -4 -13 2 -21 12 -21 30 -17 39 7 15 11 -11 18 -24 14 -27z m1795 24
c0 -19 -27 -28 -33 -11 -7 15 1 25 20 25 7 0 13 -6 13 -14z m-1793 -93 c-3
-10 -5 -4 -5 12 0 17 2 24 5 18 2 -7 2 -21 0 -30z m1786 -3 c-3 -12 -8 -19
-11 -16 -5 6 5 36 12 36 2 0 2 -9 -1 -20z m-1793 -35 c0 -5 -5 -3 -10 5 -5 8
-10 20 -10 25 0 6 5 3 10 -5 5 -8 10 -19 10 -25z m1760 31 c0 -3 -4 -8 -10
-11 -5 -3 -10 -1 -10 4 0 6 5 11 10 11 6 0 10 -2 10 -4z m70 -91 c0 -43 -4
-75 -10 -75 -11 0 -14 133 -3 143 12 13 13 7 13 -68z m-1842 -10 c-1 -30 -4
-52 -7 -50 -8 9 -8 105 1 105 4 0 7 -25 6 -55z m19 23 c-3 -8 -6 -5 -6 6 -1
11 2 17 5 13 3 -3 4 -12 1 -19z m0 -50 c-3 -7 -5 -2 -5 12 0 14 2 19 5 13 2
-7 2 -19 0 -25z m-12 -48 c-4 -6 -2 -16 3 -23 7 -8 4 -19 -9 -36 -10 -13 -19
-18 -19 -13 0 6 5 14 10 17 6 3 10 13 10 21 0 9 -5 12 -11 8 -8 -4 -8 0 0 15
7 11 14 21 17 21 3 0 2 -5 -1 -10z m1724 -76 c-5 -6 -6 -20 -3 -30 6 -17 5
-17 -9 1 -9 11 -11 22 -6 23 5 2 9 10 9 18 0 9 -4 12 -10 9 -5 -3 -10 -2 -10
4 0 5 6 11 13 14 15 5 27 -24 16 -39z m-1716 -14 c-3 -11 -9 -17 -15 -14 -5 3
-4 12 3 20 16 19 18 18 12 -6z m1087 -19 c3 -1 -2 -6 -10 -12 -12 -8 -10 -9
10 -7 17 2 26 -2 28 -14 2 -13 -3 -18 -17 -18 -12 0 -21 5 -21 10 0 6 -7 10
-16 10 -8 0 -12 5 -9 10 3 6 1 10 -4 10 -6 0 -11 4 -11 9 0 7 29 8 50 2z m621
-51 c5 0 0 -13 -13 -30 -12 -16 -26 -30 -32 -30 -6 0 -5 5 2 12 17 17 15 28
-5 22 -13 -4 -14 -3 -5 3 7 6 12 16 10 24 -2 8 3 13 10 12 6 -2 13 3 13 10 1
6 3 4 6 -5 2 -10 9 -18 14 -18z m-1703 -57 c-8 -10 -7 -13 2 -13 8 0 11 -3 8
-6 -9 -9 -48 15 -48 29 0 8 3 8 9 -2 5 -8 11 -9 15 -3 3 6 2 13 -4 17 -5 3
-10 10 -10 15 0 6 9 2 20 -7 14 -13 17 -20 8 -30z m1699 -11 c-1 -14 -7 -17
-26 -13 -25 5 -25 6 -3 9 12 2 22 8 22 13 0 5 2 9 4 9 3 0 4 -8 3 -18z m-60
-34 c-3 -8 -6 -5 -6 6 -1 11 2 17 5 13 3 -3 4 -12 1 -19z m-1542 2 c3 -6 -1
-7 -9 -4 -18 7 -21 14 -7 14 6 0 13 -4 16 -10z m1522 -22 c-3 -8 -6 -5 -6 6
-1 11 2 17 5 13 3 -3 4 -12 1 -19z m-1023 -4 c3 -8 2 -12 -4 -9 -6 3 -10 10
-10 16 0 14 7 11 14 -7z m1035 -26 c-7 -12 -15 -29 -19 -37 -3 -8 -13 -17 -21
-20 -11 -3 -11 -1 -3 10 6 8 14 23 18 34 5 16 2 15 -14 -5 -11 -14 -20 -30
-20 -36 0 -6 -8 -18 -17 -25 -15 -11 -16 -11 -5 1 6 8 12 22 12 31 0 9 7 22
15 29 8 6 14 15 13 18 -2 19 4 23 17 12 12 -10 16 -9 21 4 4 9 8 15 11 12 2
-2 -1 -15 -8 -28z m6 -60 c0 -19 -6 -23 -35 -24 -19 -1 -26 0 -15 3 11 3 26
14 33 24 17 24 17 24 17 -3z m-80 -57 c-3 -6 -11 -11 -16 -11 -5 0 -4 6 3 14
14 16 24 13 13 -3z m2 -38 c0 -10 -11 -31 -23 -46 -13 -16 -24 -36 -24 -45 0
-14 2 -14 9 -3 5 7 14 10 20 7 6 -4 11 -3 11 3 0 5 -5 11 -11 13 -7 2 -6 8 3
15 11 10 14 7 13 -15 0 -16 -6 -26 -13 -24 -7 1 -12 -3 -12 -9 0 -6 -6 -9 -14
-6 -7 3 -19 0 -25 -6 -6 -6 -2 7 8 29 11 22 27 46 35 53 16 14 10 45 -7 34 -6
-3 -7 -1 -3 5 11 18 33 14 33 -5z m-1332 -3 c3 -6 -1 -7 -9 -4 -18 7 -21 14
-7 14 6 0 13 -4 16 -10z m-39 -82 c-6 -4 -15 -8 -21 -8 -5 0 -3 4 5 10 12 8
12 10 -3 16 -9 3 -17 10 -17 16 0 5 11 1 24 -9 16 -12 20 -20 12 -25z m39 -46
c-3 -3 -11 0 -18 7 -9 10 -8 11 6 5 10 -3 15 -9 12 -12z m1325 -33 c-6 -11
-11 -51 -11 -90 0 -95 -17 -88 -21 9 -3 71 -5 77 -25 77 -30 0 -36 10 -16 26
16 13 17 12 4 -3 -15 -19 -8 -22 24 -8 11 5 14 9 8 9 -7 1 -13 6 -13 12 0 6 7
9 15 6 8 -4 17 -1 21 5 13 20 26 -20 14 -43z m-1346 9 c4 7 15 12 24 12 12 0
10 -4 -8 -14 -29 -15 -40 -12 -39 12 0 14 2 14 8 -2 5 -14 10 -16 15 -8z m145
-47 c0 -10 -2 -12 -6 -3 -2 6 -9 10 -14 7 -5 -4 -6 2 -2 11 5 13 3 15 -7 9 -9
-5 -11 -4 -6 4 10 16 36 -5 35 -28z m-184 -129 c-11 -11 -15 7 -16 71 -2 96
15 109 19 13 2 -43 0 -81 -3 -84z m75 117 c0 -4 -7 -10 -15 -13 -19 -7 -30 17
-20 42 6 16 7 16 21 -2 8 -11 14 -23 14 -27z m101 -99 c14 -25 34 -74 45 -109
10 -35 24 -66 31 -68 7 -3 15 -20 19 -39 3 -19 10 -31 15 -28 5 3 9 -2 9 -11
0 -9 7 -23 15 -31 13 -14 15 -13 15 5 0 11 4 22 9 25 5 4 7 -4 4 -15 -4 -13 0
-26 9 -33 8 -6 20 -20 26 -31 7 -12 12 -14 12 -6 0 19 30 -6 30 -26 0 -7 8
-17 18 -20 9 -4 20 -11 24 -17 5 -7 8 -7 8 2 0 6 9 12 20 12 11 0 20 -5 20
-11 0 -5 -6 -7 -12 -3 -7 4 -10 4 -6 0 3 -4 9 -8 12 -7 3 0 18 -6 33 -14 14
-8 30 -12 35 -9 4 3 8 0 8 -5 0 -6 9 -11 20 -11 12 0 20 -7 20 -16 0 -9 9 -18
20 -21 16 -4 19 -11 14 -27 -4 -11 -12 -24 -18 -28 -8 -5 -7 -8 2 -8 7 0 17
-11 24 -25 6 -13 16 -21 22 -18 6 4 5 -1 -3 -11 -13 -16 -12 -17 15 -11 24 4
25 4 8 -4 -12 -5 -25 -15 -30 -22 -5 -8 -3 -10 6 -4 10 6 12 4 7 -8 -4 -11 -2
-14 9 -10 7 3 14 0 14 -6 0 -15 50 -14 51 2 0 10 2 10 6 0 2 -7 9 -13 14 -13
6 0 7 5 3 11 -4 8 1 9 17 4 20 -7 21 -6 8 7 -8 8 -21 18 -29 21 -8 4 -3 5 12
2 22 -4 26 -2 22 10 -5 11 -2 13 10 9 9 -3 14 -10 11 -14 -3 -4 1 -8 8 -7 32
1 48 -4 42 -14 -4 -6 -13 -8 -21 -5 -8 3 -14 -1 -14 -8 0 -8 6 -14 13 -13 6 0
21 -1 32 -2 18 -1 18 -3 3 -12 -10 -5 -15 -16 -12 -24 4 -8 1 -15 -6 -15 -7 0
-6 -6 4 -16 17 -17 22 -54 7 -54 -5 0 -12 -20 -15 -44 -7 -41 -58 -116 -80
-116 -4 0 -14 -7 -22 -15 -14 -13 -14 -15 0 -15 23 0 20 -19 -6 -45 -34 -35
-48 -53 -48 -65 0 -5 -7 -10 -15 -10 -8 0 -12 -6 -9 -14 3 -8 -3 -20 -14 -27
-10 -8 -21 -21 -24 -29 -3 -11 -16 -14 -44 -11 -49 4 -69 18 -53 37 9 11 8 14
-5 14 -10 0 -15 4 -11 9 3 5 1 12 -5 16 -5 3 -10 17 -10 29 0 28 -40 88 -91
139 -40 38 -69 48 -69 24 0 -8 -7 -28 -16 -46 -18 -36 -26 -143 -12 -152 13
-8 17 -69 5 -76 -4 -3 -6 -11 -3 -19 13 -35 -63 3 -98 48 -13 18 -27 47 -31
63 -14 63 -37 112 -64 138 -33 31 -43 69 -46 182 -2 44 -11 120 -20 168 -16
76 -16 96 -5 155 9 46 12 137 10 287 -2 189 -5 221 -19 232 -15 12 -15 13 1 7
9 -3 16 0 15 8 0 7 1 26 1 43 2 29 2 29 35 -20 18 -28 44 -70 58 -95z m1130
87 c-10 -9 -11 -8 -5 6 3 10 9 15 12 12 3 -3 0 -11 -7 -18z m-1264 -89 c-2
-13 -4 -3 -4 22 0 25 2 35 4 23 2 -13 2 -33 0 -45z m30 -70 c-2 -13 -4 -5 -4
17 -1 22 1 32 4 23 2 -10 2 -28 0 -40z m-20 -75 c-2 -21 -4 -4 -4 37 0 41 2
58 4 38 2 -21 2 -55 0 -75z m20 -15 c-2 -13 -4 -3 -4 22 0 25 2 35 4 23 2 -13
2 -33 0 -45z m433 -23 c4 2 8 -7 8 -22 l0 -26 -14 24 c-7 13 -13 29 -13 34 0
6 3 4 6 -3 2 -6 8 -10 13 -7z m229 -2 c0 -11 -3 -13 -6 -5 -2 6 -10 9 -15 6
-7 -4 -8 -2 -4 4 11 18 26 14 25 -5z m-725 -44 c-6 -36 -5 -39 12 -33 11 4 1
-7 -21 -23 -42 -32 -59 -35 -32 -6 17 20 17 18 17 73 0 31 3 38 15 34 11 -5
13 -16 9 -45z m1323 44 c-4 -3 -2 -12 4 -20 7 -8 8 -13 1 -13 -12 0 -23 26
-15 34 4 3 9 6 11 6 3 0 2 -3 -1 -7z m43 -4 c0 7 5 9 11 5 8 -4 6 -10 -6 -17
-13 -7 -14 -11 -5 -17 9 -5 8 -9 -3 -13 -10 -4 -14 0 -12 11 1 9 -3 24 -9 32
-10 13 -9 13 7 1 12 -9 17 -10 17 -2z m130 -76 c11 3 19 2 18 -2 -2 -18 3 -31
13 -31 6 0 8 9 3 23 -3 12 -3 19 1 15 11 -10 15 -59 5 -53 -5 3 -14 -3 -20
-12 -9 -15 -10 -14 -4 7 6 22 5 23 -10 11 -13 -11 -19 -11 -33 0 -10 8 -21 18
-24 22 -3 5 -9 8 -13 8 -3 -1 -5 2 -4 7 1 4 8 6 15 4 8 -2 13 7 14 20 l0 23
10 -24 c6 -16 15 -22 29 -18z m-1430 8 c0 -5 -7 -12 -16 -15 -14 -5 -15 -4 -4
9 14 17 20 19 20 6z m-65 -51 c-10 -11 -23 -20 -28 -20 -6 0 -2 9 8 20 10 11
23 20 28 20 6 0 2 -9 -8 -20z m1623 -47 c10 -10 10 -13 -3 -13 -9 0 -13 -5
-10 -10 4 -6 11 -7 17 -4 7 4 8 2 4 -5 -5 -8 -16 -5 -37 9 -16 12 -29 19 -29
15 0 -3 -5 -3 -10 0 -17 11 -3 21 28 21 15 0 34 -6 40 -13z m-1193 -13 c3 -5
1 -10 -4 -10 -6 0 -11 5 -11 10 0 6 2 10 4 10 3 0 8 -4 11 -10z m-778 -67 c-9
-9 -20 -13 -24 -9 -4 4 -1 11 7 16 25 16 35 11 17 -7z m2036 4 c-4 -7 1 -8 13
-3 15 6 17 5 6 -5 -10 -11 -15 -10 -28 2 -13 14 -13 16 0 16 8 0 12 -5 9 -10z
m59 -27 c-4 -12 -2 -13 9 -2 7 6 16 12 20 12 9 0 5 -27 -6 -37 -4 -5 -5 -2 0
6 6 11 4 13 -7 8 -9 -3 -24 1 -35 9 -10 9 -12 12 -4 8 10 -5 11 -1 6 16 -6 20
-5 21 8 9 8 -8 12 -21 9 -29z m33 22 c-3 -3 -11 0 -18 7 -9 10 -8 11 6 5 10
-3 15 -9 12 -12z m-2048 -8 c-3 -3 -12 -4 -19 -1 -8 3 -5 6 6 6 11 1 17 -2 13
-5z m-217 -63 c0 -9 -41 -23 -48 -16 -2 2 -1 8 3 14 8 13 45 15 45 2z m80 -6
c0 -9 -6 -12 -15 -9 -8 4 -12 10 -9 15 8 14 24 10 24 -6z m2285 6 c4 5 18 8
33 6 22 -3 26 -9 27 -34 1 -26 -2 -30 -19 -24 -11 4 -20 15 -22 24 -1 10 2 15
7 11 5 -3 9 0 9 6 0 6 -8 10 -17 8 -10 -2 -17 -9 -16 -15 2 -7 -9 -6 -27 4
-36 18 -39 26 -5 13 15 -6 26 -6 30 1z m155 -83 c0 15 59 10 65 -5 10 -27 -13
-43 -46 -31 -16 5 -29 14 -29 19 0 5 -6 9 -14 9 -8 0 -18 4 -21 10 -4 7 3 7
19 0 14 -5 26 -6 26 -2z m-1170 -8 c0 -13 -20 -13 -40 0 -12 8 -9 10 13 10 15
0 27 -4 27 -10z m-1460 -50 c0 -5 -2 -10 -4 -10 -3 0 -8 5 -11 10 -3 6 -1 10
4 10 6 0 11 -4 11 -10z m2775 -29 c4 -11 8 -10 20 5 13 18 14 18 8 -6 -5 -24
-5 -24 9 -6 23 29 48 29 46 0 -1 -13 -7 -24 -13 -24 -5 0 -3 -5 5 -11 13 -9
13 -10 0 -6 -8 2 -14 10 -12 16 1 6 -5 11 -14 11 -9 0 -12 -5 -8 -12 4 -7 -6
-2 -23 10 -17 12 -41 26 -54 31 -24 10 -24 10 3 8 15 -1 30 -8 33 -16z m-2890
-31 c-27 -12 -43 -12 -25 0 8 5 22 9 30 9 10 0 8 -3 -5 -9z m3045 -5 c0 -8 -7
-15 -15 -15 -16 0 -20 12 -8 23 11 12 23 8 23 -8z m-3095 -15 c3 -5 1 -10 -4
-10 -6 0 -11 5 -11 10 0 6 2 10 4 10 3 0 8 -4 11 -10z m-20 -20 c7 -12 -2 -12
-30 0 -19 8 -19 9 2 9 12 1 25 -3 28 -9z m3155 0 c0 -5 -5 -10 -11 -10 -5 0
-7 5 -4 10 3 6 8 10 11 10 2 0 4 -4 4 -10z m41 -9 c4 -32 7 -47 10 -56 8 -21
-34 -13 -58 11 -7 7 -18 14 -25 17 -7 2 -9 8 -5 13 4 5 12 2 17 -6 6 -8 10
-11 10 -6 0 6 6 1 14 -9 13 -18 14 -18 25 3 7 12 8 22 2 22 -5 0 -11 -6 -14
-12 -2 -7 -4 -1 -3 13 1 17 6 25 14 22 6 -3 12 -8 13 -12z m-94 -6 c0 -8 -4
-12 -9 -9 -5 3 -6 10 -3 15 9 13 12 11 12 -6z m-3217 -69 c0 -3 -4 -8 -10 -11
-5 -3 -10 -1 -10 4 0 6 5 11 10 11 6 0 10 -2 10 -4z m3386 -38 l19 -21 -27 18
c-29 18 -34 25 -20 25 5 0 17 -10 28 -22z m107 -62 c21 -23 30 -28 36 -17 5 8
11 9 15 3 3 -5 -1 -13 -10 -16 -26 -10 -32 -7 -39 15 -6 17 -9 19 -16 8 -6
-10 -9 -11 -9 -1 0 6 -6 12 -14 12 -8 0 -16 6 -19 13 -10 26 28 14 56 -17z
m50 18 c-2 -6 -13 -9 -24 -7 -31 8 -31 20 0 20 19 0 27 -5 24 -13z m-818 -64
c-3 -5 -11 -10 -16 -10 -6 0 -7 5 -4 10 3 6 11 10 16 10 6 0 7 -4 4 -10z m850
-4 c17 7 29 -13 14 -22 -8 -5 -9 -3 -4 6 6 10 4 12 -8 7 -9 -3 -21 1 -28 11
-11 14 -11 15 0 5 7 -6 19 -9 26 -7z m42 -18 c-3 -8 -6 -5 -6 6 -1 11 2 17 5
13 3 -3 4 -12 1 -19z m21 -12 c-2 -30 -4 -32 -20 -23 -15 10 -15 13 -3 20 8 4
15 15 15 22 0 8 2 15 5 15 3 0 5 -15 3 -34z m-3790 -54 c14 11 15 10 9 -7 -7
-20 -7 -20 8 -1 16 21 21 11 6 -13 -7 -10 -13 -11 -30 -2 -11 7 -21 17 -20 24
0 9 2 8 6 -1 4 -10 8 -10 21 0z m3877 0 c-17 -12 -15 -27 5 -40 12 -7 21 -8
25 -2 3 6 -1 10 -9 10 -9 0 -16 5 -16 10 0 12 10 13 29 1 10 -6 11 -13 2 -29
-6 -12 -7 -23 -2 -26 5 -4 11 0 14 6 2 7 8 9 13 5 5 -4 2 -12 -6 -17 -13 -8
-8 -13 10 -12 3 0 6 -14 7 -31 l1 -32 -10 28 c-5 15 -14 24 -20 21 -6 -4 -8
-2 -5 4 4 5 -14 29 -39 51 -26 23 -41 41 -35 41 7 0 10 4 7 8 -2 4 5 9 17 9
12 1 17 -1 12 -5z m59 -1 c4 -5 -3 -7 -14 -4 -23 6 -26 13 -6 13 8 0 17 -4 20
-9z m-1026 -24 c2 -12 -1 -15 -12 -11 -19 7 -22 38 -3 32 6 -3 13 -12 15 -21z
m-2938 -7 c0 -5 -4 -10 -10 -10 -5 0 -10 5 -10 10 0 6 5 10 10 10 6 0 10 -4
10 -10z m30 -25 c0 -8 -2 -15 -4 -15 -2 0 -6 7 -10 15 -3 8 -1 15 4 15 6 0 10
-7 10 -15z m-23 -28 c1 -11 1 -18 0 -16 -2 2 -8 11 -15 20 -9 12 -9 16 1 16 7
0 14 -9 14 -20z m4053 -7 c0 -5 -2 -10 -4 -10 -3 0 -8 5 -11 10 -3 6 -1 10 4
10 6 0 11 -4 11 -10z m-4073 -22 c-3 -8 -6 -5 -6 6 -1 11 2 17 5 13 3 -3 4
-12 1 -19z m24 -44 c-7 -31 -9 -34 -10 -12 -1 27 9 62 15 55 3 -2 0 -22 -5
-43z m1763 -7 c-2 -7 -19 -19 -37 -26 -29 -11 -30 -13 -12 -21 11 -4 28 -3 38
2 25 13 21 -8 -5 -26 -26 -19 -55 -21 -60 -5 -3 8 -10 6 -21 -5 -9 -10 -17
-15 -17 -11 0 3 -9 1 -20 -5 -15 -8 -20 -8 -20 1 0 12 38 49 50 49 4 0 27 15
51 34 42 34 63 39 53 13z m2282 -27 c1 -19 -1 -30 -3 -23 -2 7 -12 9 -21 6
-15 -6 -14 -3 2 15 11 12 16 25 13 29 -4 3 -7 2 -7 -4 0 -19 -28 -22 -42 -5
-12 16 -11 16 6 2 18 -13 19 -13 14 1 -5 12 -1 16 15 15 17 -1 22 -8 23 -36z
m-4063 -20 c3 -11 1 -18 -4 -14 -5 3 -9 12 -9 20 0 20 7 17 13 -6z m1820 -27
c-7 -2 -13 -11 -13 -18 0 -12 -27 -30 -42 -27 -5 1 -8 -5 -8 -14 0 -10 -5 -14
-16 -10 -8 3 -12 2 -9 -4 10 -16 -15 -12 -32 5 -8 9 -14 17 -12 19 11 8 125
55 134 55 6 -1 4 -3 -2 -6z m2317 -7 c-6 -6 -5 -16 3 -25 8 -12 6 -11 -9 1
-14 12 -24 15 -32 8 -7 -6 -10 -7 -7 -4 3 4 0 13 -6 20 -8 10 -3 13 25 11 21
-1 31 -6 26 -11z m-4143 -58 c-3 -7 -5 -2 -5 12 0 14 2 19 5 13 2 -7 2 -19 0
-25z m1623 16 c0 -10 -5 -14 -15 -10 -9 3 -18 -1 -21 -9 -3 -7 -19 -17 -35
-20 -28 -6 -51 -25 -30 -25 6 0 11 -8 11 -19 0 -13 -6 -18 -22 -16 -32 3 -32
3 -20 18 5 6 10 25 10 40 -1 36 17 56 34 39 14 -14 32 -16 23 -3 -3 5 7 12 22
14 16 2 31 5 36 6 4 0 7 -6 7 -15z m2540 -24 c6 0 8 -5 4 -12 -5 -8 -13 -4
-26 11 -10 13 -18 20 -18 17 0 -4 -5 -4 -10 -1 -6 4 -7 11 -4 17 5 7 13 4 25
-10 9 -12 22 -22 29 -22z m-2493 4 c-3 -3 -12 -4 -19 -1 -8 3 -5 6 6 6 11 1
17 -2 13 -5z m-1695 -26 c-5 -7 -12 -24 -15 -38 -4 -22 -4 -22 -6 6 0 16 4 35
11 42 15 15 24 6 10 -10z m1832 16 c9 -3 16 -10 16 -16 0 -5 -4 -7 -8 -4 -12
7 -63 -39 -54 -50 4 -4 -1 -2 -10 5 -21 16 -22 12 -5 -22 11 -20 17 -23 25
-15 9 9 12 7 12 -9 0 -30 -27 -36 -45 -10 -8 12 -15 27 -15 34 0 7 -5 13 -11
13 -6 0 -8 -9 -4 -22 5 -20 4 -21 -7 -8 -15 18 -52 15 -68 -6 -10 -11 -10 -14
1 -14 11 0 11 -2 -1 -10 -20 -13 -33 -13 -24 1 3 6 1 15 -7 19 -9 6 -5 11 14
15 15 4 27 14 27 22 0 9 6 13 15 9 8 -3 15 -1 15 4 0 4 14 11 30 15 17 4 30
10 30 15 0 5 14 11 30 15 17 4 28 11 24 16 -6 11 -2 11 20 3z m71 -14 c3 -5 2
-10 -4 -10 -5 0 -13 5 -16 10 -3 6 -2 10 4 10 5 0 13 -4 16 -10z m-1939 -133
c-4 -55 -16 -92 -16 -51 0 10 -2 37 -5 59 -4 37 -4 37 5 10 7 -24 9 -18 6 30
-3 46 -2 54 5 35 6 -14 8 -51 5 -83z m2344 93 c0 -5 -2 -10 -4 -10 -3 0 -8 5
-11 10 -3 6 -1 10 4 10 6 0 11 -4 11 -10z m75 -20 c3 -5 1 -10 -4 -10 -6 0
-11 5 -11 10 0 6 2 10 4 10 3 0 8 -4 11 -10z m-755 -10 c0 -5 -4 -10 -10 -10
-5 0 -10 5 -10 10 0 6 5 10 10 10 6 0 10 -4 10 -10z m763 -25 c9 -4 17 -11 17
-15 0 -12 -43 -20 -55 -10 -7 6 -15 7 -18 3 -10 -9 -57 18 -51 29 6 10 78 5
107 -7z m-2393 -30 c0 -8 -4 -15 -10 -15 -5 0 -10 7 -10 15 0 8 5 15 10 15 6
0 10 -7 10 -15z m1377 -11 c-9 -9 -28 6 -21 18 4 6 10 6 17 -1 6 -6 8 -13 4
-17z m509 17 c7 -1 14 -8 17 -16 5 -11 -1 -13 -26 -9 -49 9 -59 13 -52 24 3 5
16 8 28 6 12 -3 27 -5 33 -5z m-121 -17 c19 -15 19 -15 -9 -12 -17 2 -31 -2
-33 -9 -3 -7 0 -13 6 -13 6 0 11 -5 11 -11 0 -6 -5 -7 -12 -2 -7 4 -19 8 -26
9 -22 4 -27 14 -12 24 10 7 11 10 3 10 -7 0 -13 5 -13 10 0 16 63 11 85 -6z
m240 -4 c8 -13 -15 -13 -35 0 -12 8 -11 10 7 10 12 0 25 -4 28 -10z m46 -10
c13 -7 19 -7 19 0 0 5 9 10 21 10 18 0 19 -2 5 -15 -21 -21 -76 -17 -76 6 0
12 7 11 31 -1z m-2064 -42 c-3 -7 -5 -2 -5 12 0 14 2 19 5 13 2 -7 2 -19 0
-25z m1673 2 c0 -5 -6 -10 -14 -10 -8 0 -18 5 -21 10 -3 6 3 10 14 10 12 0 21
-4 21 -10z m125 -9 c-5 -16 1 -21 27 -26 18 -4 44 -16 58 -27 l24 -19 -57 2
c-53 2 -57 4 -57 26 0 13 -4 22 -9 19 -4 -3 -6 6 -3 19 2 14 9 25 14 25 5 0 7
-9 3 -19z m63 0 c3 -8 -1 -12 -9 -9 -7 2 -15 10 -17 17 -3 8 1 12 9 9 7 -2 15
-10 17 -17z m63 -14 c-13 -13 -26 -3 -16 12 3 6 11 8 17 5 6 -4 6 -10 -1 -17z
m-642 -3 c2 -2 2 -6 -1 -9 -8 -8 -68 6 -68 16 0 8 59 1 69 -7z m-1322 -66 c-2
-13 -4 -3 -4 22 0 25 2 35 4 23 2 -13 2 -33 0 -45z m20 -20 c-2 -18 -4 -6 -4
27 0 33 2 48 4 33 2 -15 2 -42 0 -60z m1190 54 c-22 -3 -27 -7 -22 -22 7 -21
-23 -36 -39 -20 -6 6 -3 17 13 33 16 18 28 23 49 18 l27 -6 -28 -3z m2335 -47
c4 -27 5 -52 2 -54 -9 -9 -24 23 -20 41 2 9 -2 19 -10 22 -21 8 -18 48 3 44
13 -2 20 -17 25 -53z m-1739 31 c22 -17 22 -26 -1 -26 -9 0 -23 9 -30 20 -15
24 2 28 31 6z m317 -6 c0 -5 -7 -7 -15 -4 -8 4 -15 8 -15 10 0 2 7 4 15 4 8 0
15 -4 15 -10z m-1010 -25 c10 -12 9 -16 -5 -21 -16 -6 -34 9 -35 29 0 13 27 8
40 -8z m339 -29 c9 -11 9 -15 -1 -19 -18 -6 -50 12 -43 24 9 13 31 11 44 -5z
m392 -13 c13 -15 12 -15 -8 -4 -24 12 -29 21 -14 21 5 0 15 -7 22 -17z m-725
-19 c16 -13 16 -15 2 -10 -10 3 -18 1 -18 -4 0 -6 9 -10 19 -10 25 0 51 -10
51 -20 0 -4 -11 -11 -24 -14 -29 -7 -73 30 -68 57 4 21 13 21 38 1z m141 -11
c-8 -7 -37 9 -31 19 3 5 12 4 20 -3 8 -6 13 -14 11 -16z m-1244 -35 c-3 -27
-10 -48 -14 -48 -11 0 -11 2 2 56 14 56 19 53 12 -8z m1043 21 c8 -14 -17 -21
-31 -9 -8 7 -24 10 -35 7 -11 -3 -18 -1 -15 4 7 10 74 9 81 -2z m-1029 -71
c-2 -13 -4 -3 -4 22 0 25 2 35 4 23 2 -13 2 -33 0 -45z m1783 40 c0 -5 -7 -8
-15 -4 -8 3 -15 1 -15 -4 0 -6 -5 -10 -12 -10 -6 0 -3 8 7 20 17 19 35 19 35
-2z m-748 -10 c27 -13 43 -44 29 -53 -12 -7 -81 28 -81 40 0 27 15 30 52 13z
m258 -3 c0 -8 -4 -15 -9 -15 -13 0 -22 16 -14 24 11 11 23 6 23 -9z m572 -13
c11 -13 9 -15 -16 -10 -35 7 -58 0 -49 -15 3 -6 1 -7 -5 -3 -17 10 -15 34 4
44 21 12 49 5 66 -16z m-497 -2 c4 -6 -7 -10 -24 -10 -17 0 -31 5 -31 10 0 6
11 10 24 10 14 0 28 -4 31 -10z m-1382 -44 c3 -8 0 -19 -6 -24 -9 -8 -12 -4
-12 14 0 27 10 32 18 10z m987 -10 c0 -3 -4 -8 -10 -11 -5 -3 -10 -1 -10 4 0
6 5 11 10 11 6 0 10 -2 10 -4z m458 -13 c5 -18 -20 -16 -44 2 -18 15 -18 15
10 13 16 -2 31 -9 34 -15z m691 -8 c23 7 39 -14 20 -26 -19 -12 -66 -11 -74 1
-4 6 -4 18 -1 27 5 12 9 13 21 3 8 -6 23 -9 34 -5z m-2104 -5 c3 -5 1 -10 -4
-10 -6 0 -11 5 -11 10 0 6 2 10 4 10 3 0 8 -4 11 -10z m1475 0 c0 -5 -2 -10
-4 -10 -3 0 -8 5 -11 10 -3 6 -1 10 4 10 6 0 11 -4 11 -10z"/>
<path d="M1850 4000 c0 -5 5 -10 10 -10 6 0 10 5 10 10 0 6 -4 10 -10 10 -5 0
-10 -4 -10 -10z"/>
<path d="M1876 3943 c-6 -14 -5 -15 5 -6 7 7 10 15 7 18 -3 3 -9 -2 -12 -12z"/>
<path d="M2936 4002 c-3 -6 -1 -14 5 -17 14 -9 20 -2 10 14 -6 8 -11 9 -15 3z"/>
<path d="M1915 3699 c-4 -6 -5 -12 -2 -15 2 -3 7 2 10 11 7 17 1 20 -8 4z"/>
<path d="M1515 3110 c-3 -5 -1 -10 4 -10 6 0 11 5 11 10 0 6 -2 10 -4 10 -3 0
-8 -4 -11 -10z"/>
<path d="M1850 2806 c0 -2 7 -9 15 -16 13 -11 14 -10 9 4 -5 14 -24 23 -24 12z"/>
<path d="M1604 2769 c-3 -6 -1 -16 5 -22 8 -8 11 -5 11 11 0 24 -5 28 -16 11z"/>
<path d="M2211 2627 c-40 -20 -36 -34 11 -35 48 -1 79 12 63 26 -19 18 -50 22
-74 9z"/>
<path d="M1680 2474 c0 -8 5 -12 10 -9 6 4 8 11 5 16 -9 14 -15 11 -15 -7z"/>
<path d="M1606 2408 c-3 -13 -1 -27 4 -32 6 -6 10 -6 11 0 0 5 2 17 4 26 5 27
-12 31 -19 6z"/>
<path d="M1982 2423 c-7 -3 -26 -26 -44 -51 l-31 -47 28 25 c20 17 26 20 22 8
-5 -15 -4 -15 24 0 16 9 29 21 29 26 0 5 6 4 13 -2 10 -8 13 -6 13 9 0 10 -4
19 -9 19 -4 0 -6 4 -3 8 5 9 -22 12 -42 5z"/>
<path d="M1740 2394 c0 -6 7 -19 16 -30 14 -18 14 -18 3 6 -14 31 -19 36 -19
24z"/>
<path d="M1685 2350 c3 -5 8 -10 11 -10 2 0 4 5 4 10 0 6 -5 10 -11 10 -5 0
-7 -4 -4 -10z"/>
<path d="M1614 2314 c3 -35 21 -64 40 -64 6 0 0 9 -13 19 -22 17 -23 19 -6 28
17 10 17 11 -3 31 l-20 20 2 -34z"/>
<path d="M1776 2285 c4 -8 8 -15 10 -15 2 0 4 7 4 15 0 8 -4 15 -10 15 -5 0
-7 -7 -4 -15z"/>
<path d="M1806 2255 c-3 -8 0 -17 6 -21 6 -4 8 -3 4 4 -3 5 -1 12 6 14 8 3 9
6 1 11 -6 4 -13 0 -17 -8z"/>
<path d="M1803 2188 c-2 -16 1 -18 10 -9 7 7 8 14 1 21 -6 6 -10 2 -11 -12z"/>
<path d="M1791 2144 c0 -11 3 -14 6 -6 3 7 2 16 -1 19 -3 4 -6 -2 -5 -13z"/>
<path d="M1851 2078 c-1 -34 13 -43 30 -20 13 15 12 16 -3 4 -15 -12 -17 -10
-21 15 l-4 28 -2 -27z"/>
<path d="M1690 3759 c0 -5 9 -9 20 -9 11 0 20 2 20 4 0 2 -9 6 -20 9 -11 3
-20 1 -20 -4z"/>
<path d="M3012 2128 c-14 -14 -16 -28 -3 -28 9 0 24 30 18 36 -2 2 -9 -2 -15
-8z"/>
<path d="M1692 2070 c0 -14 2 -19 5 -12 2 6 2 18 0 25 -3 6 -5 1 -5 -13z"/>
<path d="M3110 1680 c0 -14 29 -32 40 -25 6 3 8 10 5 14 -7 12 -45 21 -45 11z"/>
<path d="M3230 1606 c0 -2 7 -7 16 -10 8 -3 12 -2 9 4 -6 10 -25 14 -25 6z"/>
<path d="M3570 1420 c-9 -6 -10 -10 -3 -10 6 0 15 5 18 10 8 12 4 12 -15 0z"/>
<path d="M3701 1361 c-7 -5 -3 -12 13 -19 23 -10 36 -7 36 9 0 10 -36 18 -49
10z"/>
<path d="M3885 1280 c-3 -5 -1 -10 4 -10 6 0 11 5 11 10 0 6 -2 10 -4 10 -3 0
-8 -4 -11 -10z"/>
<path d="M2345 4170 c3 -5 8 -10 11 -10 2 0 4 5 4 10 0 6 -5 10 -11 10 -5 0
-7 -4 -4 -10z"/>
<path d="M1611 1484 c0 -11 3 -14 6 -6 3 7 2 16 -1 19 -3 4 -6 -2 -5 -13z"/>
<path d="M1380 1470 c-9 -6 -10 -10 -3 -10 6 0 15 5 18 10 8 12 4 12 -15 0z"/>
<path d="M1631 1460 c0 -8 4 -24 9 -35 l9 -20 0 20 c0 11 -4 27 -9 35 -9 13
-10 13 -9 0z"/>
<path d="M1602 1410 c0 -14 2 -19 5 -12 2 6 2 18 0 25 -3 6 -5 1 -5 -13z"/>
<path d="M1430 1390 c0 -5 5 -10 10 -10 6 0 10 5 10 10 0 6 -4 10 -10 10 -5 0
-10 -4 -10 -10z"/>
<path d="M1288 1382 c-20 -4 -24 -37 -7 -48 7 -4 10 -1 7 7 -3 8 2 19 11 26
19 13 13 21 -11 15z"/>
<path d="M1632 1313 c0 -39 4 -86 8 -105 6 -25 8 -14 8 47 0 44 -4 91 -8 105
-6 17 -8 3 -8 -47z"/>
<path d="M1191 1339 c-13 -11 -31 -17 -38 -15 -8 3 -12 2 -9 -3 3 -5 -8 -11
-24 -15 -37 -7 -39 -29 -2 -46 l27 -14 -44 -6 c-47 -7 -69 -27 -78 -72 -3 -16
-11 -28 -17 -28 -18 0 -38 -39 -31 -61 5 -13 -3 -27 -26 -49 -18 -16 -30 -32
-26 -36 3 -4 -3 -18 -13 -32 -11 -13 -20 -29 -20 -34 0 -5 -27 -63 -60 -130
-33 -66 -60 -127 -60 -135 0 -8 -6 -26 -14 -41 -7 -15 -16 -40 -20 -57 -7 -27
-1 -23 51 34 32 35 76 83 99 105 22 23 49 53 58 69 10 15 24 27 31 27 16 0 30
18 40 49 6 20 4 23 -9 18 -9 -4 -16 -2 -16 3 0 10 29 15 59 10 19 -2 32 22 19
37 -8 10 -5 13 14 13 22 0 54 25 73 58 4 8 0 19 -11 26 -17 13 -16 14 5 21 14
4 20 12 17 21 -3 9 -1 35 4 60 12 53 0 84 -32 84 -12 0 -18 3 -14 7 3 4 28 6
54 5 32 -2 43 1 33 7 -12 8 -13 12 -1 25 7 9 10 20 6 24 -4 4 -12 -1 -17 -10
-9 -16 -11 -16 -29 2 -11 11 -27 20 -35 20 -28 0 -15 17 20 27 21 7 37 7 41 2
3 -5 -5 -9 -18 -10 -22 0 -22 -1 -3 -8 28 -12 36 -4 28 27 -6 25 -5 26 10 10
15 -14 57 -15 57 -1 0 3 -9 3 -20 0 -26 -7 -35 9 -13 22 17 10 17 10 -2 10
-11 0 -31 -9 -44 -20z"/>
<path d="M1604 1175 c2 -112 9 -182 21 -233 10 -39 20 -70 23 -68 2 3 -1 49
-8 103 -7 54 -14 118 -17 143 -22 222 -22 221 -19 55z"/>
<path d="M1220 1292 c0 -12 19 -26 26 -19 2 2 -2 10 -11 17 -9 8 -15 8 -15 2z"/>
<path d="M828 1115 c-6 -14 -17 -25 -24 -25 -17 0 -27 -17 -19 -31 7 -11 75
52 75 71 0 19 -20 10 -32 -15z"/>
<path d="M1652 1100 c0 -14 2 -19 5 -12 2 6 2 18 0 25 -3 6 -5 1 -5 -13z"/>
<path d="M1554 995 c0 -14 4 -25 9 -25 10 0 9 38 -2 44 -5 3 -8 -5 -7 -19z"/>
<path d="M1518 963 c7 -3 16 -2 19 1 4 3 -2 6 -13 5 -11 0 -14 -3 -6 -6z"/>
<path d="M1230 940 c-11 -7 -12 -12 -3 -21 9 -9 7 -16 -12 -30 -31 -25 -37
-24 -29 6 5 21 3 25 -16 25 -29 0 -45 -19 -47 -54 0 -17 -8 -35 -17 -42 -14
-10 -14 -13 -2 -24 9 -6 19 -10 23 -7 4 3 18 1 31 -4 20 -8 23 -13 17 -40 -5
-22 -4 -29 4 -25 6 4 11 14 11 22 0 8 12 20 28 27 18 8 27 19 26 34 -1 14 6
23 19 27 20 5 20 6 4 24 -21 23 -22 32 -2 32 8 0 15 5 15 10 0 6 -4 10 -9 10
-5 0 -7 9 -4 20 6 22 -11 26 -37 10z"/>
<path d="M1550 906 c0 -9 30 -14 35 -6 4 6 -3 10 -14 10 -12 0 -21 -2 -21 -4z"/>
<path d="M1555 850 c-3 -4 4 -10 15 -13 11 -3 22 -2 25 3 3 4 -4 10 -15 13
-11 3 -22 2 -25 -3z"/>
<path d="M1674 806 l21 -49 5 34 c8 50 1 69 -24 67 l-23 -2 21 -50z"/>
<path d="M1735 760 c3 -5 8 -10 11 -10 2 0 4 5 4 10 0 6 -5 10 -11 10 -5 0 -7
-4 -4 -10z"/>
<path d="M1710 740 c0 -5 5 -10 11 -10 5 0 7 5 4 10 -3 6 -8 10 -11 10 -2 0
-4 -4 -4 -10z"/>
<path d="M1157 683 c-4 -3 -7 -11 -7 -17 0 -6 5 -5 12 2 6 6 9 14 7 17 -3 3
-9 2 -12 -2z"/>
<path d="M1127 599 c-4 -16 -3 -18 9 -8 16 13 19 29 5 29 -5 0 -11 -9 -14 -21z"/>
<path d="M1690 609 c0 -5 5 -7 10 -4 6 3 10 8 10 11 0 2 -4 4 -10 4 -5 0 -10
-5 -10 -11z"/>
<path d="M1185 580 c3 -5 10 -10 16 -10 5 0 9 5 9 10 0 6 -7 10 -16 10 -8 0
-12 -4 -9 -10z"/>
<path d="M1380 580 c0 -5 14 -10 31 -10 17 0 28 4 24 10 -3 6 -17 10 -31 10
-13 0 -24 -4 -24 -10z"/>
<path d="M1652 573 c2 -12 14 -19 37 -21 31 -3 33 -2 22 12 -7 9 -17 14 -21
11 -5 -3 -11 -1 -15 5 -10 17 -27 11 -23 -7z"/>
<path d="M1260 576 c0 -9 30 -14 35 -6 4 6 -3 10 -14 10 -12 0 -21 -2 -21 -4z"/>
<path d="M1097 540 c-3 -11 -1 -22 3 -25 15 -9 36 5 37 25 2 27 -33 27 -40 0z"/>
<path d="M1585 550 c-4 -6 5 -10 19 -10 14 0 26 5 26 10 0 6 -9 10 -19 10 -11
0 -23 -4 -26 -10z"/>
<path d="M1737 544 c-8 -8 1 -24 14 -24 5 0 9 7 9 15 0 15 -12 20 -23 9z"/>
<path d="M1864 531 c20 -22 26 -25 26 -13 0 4 -10 13 -22 21 -23 14 -23 14 -4
-8z"/>
<path d="M1165 520 c-3 -5 3 -10 15 -10 12 0 18 5 15 10 -3 6 -10 10 -15 10
-5 0 -12 -4 -15 -10z"/>
<path d="M1653 481 c-19 -24 -29 -28 -63 -26 -26 2 -40 -2 -40 -10 0 -14 60
-16 77 -3 7 6 21 7 30 3 20 -9 73 -15 73 -9 0 3 -12 10 -27 16 l-28 12 38 4
c43 4 40 22 -4 22 -18 0 -28 4 -24 10 14 22 -11 7 -32 -19z"/>
<path d="M1255 480 c3 -5 11 -10 16 -10 6 0 7 5 4 10 -3 6 -11 10 -16 10 -6 0
-7 -4 -4 -10z"/>
<path d="M1430 480 c0 -5 5 -10 11 -10 5 0 7 5 4 10 -3 6 -8 10 -11 10 -2 0
-4 -4 -4 -10z"/>
<path d="M1230 414 c0 -9 -9 -18 -20 -21 -32 -9 -17 -28 23 -30 47 -3 54 10
22 41 -18 18 -25 21 -25 10z"/>
<path d="M1450 406 c0 -10 28 -13 41 -5 10 6 7 9 -13 9 -16 0 -28 -2 -28 -4z"/>
<path d="M1516 395 c-3 -9 -6 -22 -5 -28 0 -7 5 -1 10 12 5 13 8 26 5 28 -2 2
-6 -3 -10 -12z"/>
<path d="M1396 359 c18 -20 50 -24 74 -9 20 12 12 17 -43 22 -46 5 -47 5 -31
-13z"/>
<path d="M1131 331 c-9 -6 2 -10 35 -13 27 -3 51 -3 53 -1 15 12 -70 25 -88
14z"/>
<path d="M1300 325 c0 -8 6 -15 14 -15 22 0 28 17 10 24 -22 9 -24 8 -24 -9z"/>
<path d="M1232 308 c4 -12 58 -31 58 -21 0 9 -34 32 -48 33 -8 0 -12 -5 -10
-12z"/>
<path d="M1117 245 c-12 -9 -14 -15 -7 -20 6 -4 8 -14 5 -24 -4 -12 2 -17 22
-19 21 -2 24 1 15 10 -18 18 -14 28 12 28 18 0 25 -7 30 -31 6 -33 -10 -59
-38 -59 -9 0 -16 -4 -16 -9 0 -11 -61 -22 -114 -21 l-40 1 26 -20 c22 -17 30
-19 56 -9 23 9 37 9 57 0 33 -15 45 -9 38 19 -6 21 -6 21 23 3 37 -24 55 -46
49 -61 -6 -19 32 -16 39 2 3 8 13 15 22 15 9 0 27 9 40 19 14 11 33 17 44 14
11 -3 20 0 20 6 0 6 -6 11 -12 12 -7 0 -43 2 -80 5 -40 3 -69 1 -73 -6 -13
-21 -22 -9 -16 23 6 28 11 32 37 30 l29 -2 -27 17 c-32 19 -37 42 -10 42 31 1
-18 30 -51 30 -15 0 -36 4 -45 9 -12 6 -23 5 -35 -4z"/>
<path d="M1150 160 c0 -5 5 -10 10 -10 6 0 10 5 10 10 0 6 -4 10 -10 10 -5 0
-10 -4 -10 -10z"/>
<path d="M1180 36 c0 -8 6 -17 13 -20 6 -3 0 -4 -15 -1 -15 3 -30 1 -33 -5 -4
-6 8 -10 28 -10 34 0 54 20 41 41 -8 14 -34 10 -34 -5z"/>
<path d="M1320 28 c-72 -16 -71 -28 1 -28 45 0 60 3 49 10 -13 8 -12 10 3 10
10 0 15 5 12 10 -7 11 -4 11 -65 -2z"/>
<path d="M1080 10 c0 -5 5 -10 11 -10 5 0 7 5 4 10 -3 6 -8 10 -11 10 -2 0 -4
-4 -4 -10z"/>
<path d="M2345 10 c-3 -5 1 -10 9 -10 9 0 16 5 16 10 0 6 -4 10 -9 10 -6 0
-13 -4 -16 -10z"/>
</g>
</svg>
